<svg width="17" height="17" viewBox="0 0 17 17" fill="none" xmlns="http://www.w3.org/2000/svg">
<g clip-path="url(#clip0_505_244)">
<path d="M0.5 8.5C0.5 10.6217 1.34285 12.6566 2.84315 14.1569C4.34344 15.6571 6.37827 16.5 8.5 16.5C10.6217 16.5 12.6566 15.6571 14.1569 14.1569C15.6571 12.6566 16.5 10.6217 16.5 8.5C16.5 6.37827 15.6571 4.34344 14.1569 2.84315C12.6566 1.34285 10.6217 0.5 8.5 0.5C6.37827 0.5 4.34344 1.34285 2.84315 2.84315C1.34285 4.34344 0.5 6.37827 0.5 8.5ZM9.78125 12.5312C9.4875 12.825 9.0125 12.825 8.72188 12.5312C8.43125 12.2375 8.42813 11.7625 8.72188 11.4719L10.9406 9.25313L4.25 9.25C3.83437 9.25 3.5 8.91562 3.5 8.5C3.5 8.08437 3.83437 7.75 4.25 7.75H10.9406L8.72188 5.53125C8.42813 5.2375 8.42813 4.7625 8.72188 4.47187C9.01562 4.18125 9.49063 4.17812 9.78125 4.47187L13.2812 7.96875C13.575 8.2625 13.575 8.7375 13.2812 9.02812L9.78125 12.5312Z" fill="#FFBA00"/>
</g>
<defs>
<clipPath id="clip0_505_244">
<rect width="16" height="16" fill="white" transform="translate(0.5 0.5)"/>
</clipPath>
</defs>
</svg>
