<svg width="149" height="40" viewBox="0 0 149 40" fill="none" xmlns="http://www.w3.org/2000/svg">
<path d="M0 16.1072V7.66774C10.4283 2.42578 22.0127 0.203003 32.0954 0.203003C37.7923 0.203003 43.9659 0.916194 50.1394 2.47333C47.1957 2.11673 43.8348 1.98598 41.0817 1.98598C19.6768 1.98598 6.90058 9.46261 0 16.1072Z" fill="#164194"/>
<path d="M64.1908 32.3323C53.7625 37.5742 42.1781 39.797 32.0954 39.797C26.3985 39.797 20.225 39.0838 14.0514 37.5267C16.9952 37.8833 20.3561 38.014 23.1091 38.014C44.514 38.014 57.2902 30.5374 64.1908 23.8928V32.3323Z" fill="#164194"/>
<path d="M40.605 10.9127L39.3178 14.9304H31.0824L30.2005 17.6762H37.3394L36.0761 21.6106H28.9372L27.9718 24.606H36.5528L35.218 28.7544H21.3096L27.0541 10.9127H40.605Z" fill="#164194"/>
<path d="M56.4798 14.9304H49.9606L45.5151 28.7544H40.1877L44.6332 14.9304H41.2008L42.4879 10.9127H57.7669L56.4798 14.9304Z" fill="#164194"/>
<path d="M23.6932 10.9127H18.3658L15.2552 20.6121C14.3256 23.5124 13.4437 24.9626 11.3461 24.9626C10.0589 24.9626 8.92671 24.8675 7.72298 24.6417L6.41199 28.695C7.69914 28.9684 9.61795 29.1466 11.5844 29.1466C16.9237 29.1466 18.4373 27.1973 20.2846 21.468L23.6932 10.9127Z" fill="#164194"/>
<path d="M62.5104 34.6383C63.4281 34.6383 64.1908 35.3634 64.1908 36.3143C64.1908 37.2771 63.4281 38.0022 62.5104 38.0022C61.5927 38.0022 60.818 37.2771 60.818 36.3143C60.8061 35.3634 61.5808 34.6383 62.5104 34.6383ZM62.5104 37.7645C63.2851 37.7645 63.8929 37.1464 63.8929 36.3143C63.8929 35.506 63.297 34.8879 62.5104 34.8879C61.7238 34.8879 61.116 35.506 61.116 36.3143C61.116 37.1345 61.7119 37.7645 62.5104 37.7645ZM61.8549 35.3396H62.6176C63.0824 35.3396 63.3089 35.5179 63.3089 35.8983C63.3089 36.2549 63.0824 36.3975 62.7964 36.4332L63.3566 37.3009H63.0229L62.4865 36.4569H62.1648V37.3009H61.8549V35.3396ZM62.1528 36.2073H62.4746C62.7487 36.2073 62.9871 36.1954 62.9871 35.8864C62.9871 35.6249 62.7607 35.5892 62.5581 35.5892H62.1528V36.2073Z" fill="#164194"/>
<path d="M69.8638 24.713L70.7458 21.4324C71.3893 21.159 72.2117 20.9807 73.2128 20.8975L72.1283 24.927C71.9376 25.6283 71.9614 26.1513 72.1879 26.496C72.3905 26.8051 72.7718 26.9596 73.3439 26.9596H74.202L75.6918 21.4324C76.3354 21.159 77.1577 20.9807 78.1588 20.8975L76.2043 28.1364C75.084 28.5524 73.8683 28.7545 72.5692 28.7545C72.5573 28.7545 72.5335 28.7545 72.5216 28.7545C71.2582 28.7545 70.4001 28.4335 69.9592 27.8035C69.6731 27.3994 69.554 26.9239 69.5778 26.3534C69.5778 25.973 69.6731 25.4262 69.8638 24.713Z" fill="#164194"/>
<path d="M78.135 28.588L80.03 21.5393C81.186 21.1114 82.4255 20.8975 83.7604 20.8975C85.0356 20.8975 85.9056 21.2184 86.3585 21.8603C86.6445 22.2644 86.7637 22.7399 86.7399 23.3104C86.728 23.6908 86.6207 24.2376 86.43 24.9508L85.4527 28.588H83.1287L84.1656 24.7249C84.3563 24.0236 84.3324 23.5006 84.106 23.1559C83.8915 22.8469 83.4982 22.6923 82.9142 22.6923H82.0322L80.4471 28.588H78.135Z" fill="#164194"/>
<path d="M87.7171 25.0101C88.0746 23.6907 88.7778 22.6685 89.8266 21.9434C90.7919 21.2778 91.948 20.933 93.2828 20.933C93.6284 20.933 93.986 20.9806 94.3197 21.0757L95.3208 17.3671C96.0716 16.9392 96.9298 16.6658 97.8713 16.535L94.7011 28.3502C93.3662 28.6236 92.0433 28.7663 90.7323 28.7663C89.4214 28.7663 88.5037 28.3978 87.9912 27.6727C87.5145 26.9952 87.4191 26.1156 87.7171 25.0101ZM90.2675 24.713C90.0768 25.4024 90.0888 25.961 90.2914 26.389C90.5059 26.8763 90.9707 27.1259 91.6858 27.1259H92.7107L93.9264 22.5853C93.6523 22.4902 93.2828 22.4308 92.818 22.4308C91.5309 22.4308 90.6728 23.1915 90.2675 24.713Z" fill="#164194"/>
<path d="M101.197 21.4324C101.781 21.2065 102.615 21.0282 103.687 20.8975L103.807 25.1885C103.819 25.7353 103.819 26.1156 103.783 26.3415C103.878 26.1038 104.081 25.7234 104.379 25.1885L106.512 21.4324C107.156 21.1827 107.918 21.0044 108.776 20.8975L109.051 25.1647C109.086 25.6521 109.086 26.0443 109.062 26.3296C109.158 26.08 109.36 25.6877 109.646 25.1647L111.839 21.1352C112.316 21.052 112.697 21.0044 112.984 21.0044C113.329 21.0044 113.699 21.052 114.056 21.1352L109.503 28.5762H107.168L106.905 25.0696C106.881 24.7725 106.87 24.3921 106.87 23.9285C106.774 24.1425 106.572 24.5228 106.238 25.0696L104.116 28.5762H101.781L101.197 21.4324Z" fill="#164194"/>
<path d="M113.556 24.7962C113.818 23.8215 114.342 22.9657 115.117 22.2406C116.082 21.3491 117.226 20.9093 118.537 20.9093C119.741 20.9093 120.563 21.2897 120.992 22.0623C121.422 22.8349 121.445 23.9285 121.064 25.3311H115.725C115.403 26.5079 116.023 27.1022 117.56 27.1022C118.549 27.1022 119.515 26.9952 120.432 26.7812L119.991 28.4454C119.097 28.6593 118.073 28.7663 116.916 28.7663C116.893 28.7663 116.857 28.7663 116.821 28.7663C115.319 28.7663 114.306 28.4572 113.77 27.8273C113.258 27.1854 113.174 26.1869 113.556 24.7962ZM116.058 24.1068H118.99C119.252 22.9657 118.919 22.3951 117.977 22.3951C117.071 22.3951 116.428 22.9657 116.058 24.1068Z" fill="#164194"/>
<path d="M124.187 18.2111C124.27 17.902 124.485 17.6286 124.842 17.3909C125.2 17.1532 125.617 17.0343 126.105 17.0343C126.546 17.0343 126.868 17.1413 127.059 17.3671C127.214 17.5811 127.261 17.8426 127.178 18.1397C127.095 18.4488 126.892 18.7103 126.558 18.9361C126.189 19.1858 125.748 19.3165 125.259 19.3165C124.818 19.3165 124.508 19.2095 124.33 18.9956C124.151 18.7697 124.103 18.5082 124.187 18.2111ZM121.731 28.588L123.65 21.4323C124.294 21.1589 125.116 20.9806 126.117 20.8974L124.055 28.588H121.731Z" fill="#164194"/>
<path d="M126.892 25.664L128.739 18.7817C129.514 18.437 130.348 18.2349 131.23 18.1517L130.443 21.0758H132.899L132.458 22.7399H130.003L129.299 25.355C129.013 26.4248 129.252 26.9596 130.038 26.9596C130.527 26.9596 131.039 26.8883 131.564 26.7338L131.087 28.493C130.515 28.6594 129.883 28.7545 129.204 28.7545C129.18 28.7545 129.156 28.7545 129.132 28.7545C127.976 28.7545 127.238 28.5168 126.916 28.0413C126.606 27.554 126.594 26.7695 126.892 25.664Z" fill="#164194"/>
<path d="M132.875 24.7962C133.137 23.8215 133.661 22.9657 134.436 22.2406C135.401 21.3491 136.546 20.9093 137.857 20.9093C139.06 20.9093 139.883 21.2897 140.312 22.0623C140.741 22.8349 140.765 23.9285 140.383 25.3311H135.044C134.722 26.5079 135.342 27.1022 136.879 27.1022C137.868 27.1022 138.834 26.9952 139.752 26.7812L139.311 28.4454C138.417 28.6593 137.392 28.7663 136.236 28.7663C136.212 28.7663 136.176 28.7663 136.14 28.7663C134.639 28.7663 133.626 28.4572 133.089 27.8273C132.589 27.1854 132.505 26.1869 132.875 24.7962ZM135.389 24.1068H138.321C138.584 22.9657 138.25 22.3951 137.308 22.3951C136.403 22.3951 135.759 22.9657 135.389 24.1068Z" fill="#164194"/>
<path d="M141.051 28.5881L142.969 21.4324C143.565 21.2065 144.388 21.0282 145.437 20.8975L145.007 22.5022C145.734 21.4086 146.771 20.8618 148.118 20.8618L147.51 23.1084H146.33C145.341 23.1084 144.721 23.5601 144.471 24.4515L143.363 28.5881H141.051Z" fill="#164194"/>
<path d="M145.854 27.851C145.854 27.5182 146.009 27.2329 146.307 26.9833C146.604 26.7337 147.022 26.6029 147.546 26.6029C148.011 26.6029 148.368 26.7218 148.619 26.9476C148.869 27.1735 149 27.4587 149 27.7797C149 28.1125 148.857 28.3859 148.571 28.6355C148.249 28.897 147.832 29.0278 147.296 29.0396C146.831 29.0396 146.473 28.9208 146.223 28.6949C145.985 28.4572 145.854 28.1838 145.854 27.851Z" fill="#164194"/>
</svg>
