<svg width="21" height="20" viewBox="0 0 21 20" fill="none" xmlns="http://www.w3.org/2000/svg">
<path d="M11.5035 0.138889L11.0921 5.20556C10.8975 5.18333 10.7029 5.17222 10.5028 5.17222C10.2526 5.17222 10.008 5.18889 9.76895 5.22778L9.53546 2.77222C9.5299 2.69444 9.59105 2.62778 9.66888 2.62778H10.0858L9.88569 0.144444C9.88013 0.0666667 9.94129 0 10.0136 0H11.3756C11.4534 0 11.5146 0.0666667 11.5035 0.144444V0.138889ZM8.06779 0.388889C8.04556 0.316667 7.96772 0.272222 7.89545 0.3L6.61681 0.766667C6.54454 0.794444 6.51118 0.877778 6.54454 0.944444L7.58413 3.21111L7.18942 3.35556C7.11715 3.38333 7.08379 3.46667 7.11715 3.53333L8.17898 5.76111C8.56257 5.55 8.97952 5.38889 9.41871 5.28889L8.07335 0.388889H8.06779ZM4.93233 1.8L7.87322 5.94444C7.50074 6.18889 7.16162 6.47778 6.87254 6.81111L5.11023 5.07778C5.05463 5.02222 5.06019 4.93333 5.11579 4.88333L5.43823 4.61667L3.68704 2.84444C3.63145 2.78889 3.63701 2.7 3.69816 2.65L4.73775 1.77778C4.79891 1.72778 4.8823 1.73889 4.92677 1.8H4.93233ZM2.46399 4.2C2.40283 4.15556 2.31388 4.17778 2.27497 4.24444L1.59673 5.42222C1.55782 5.48889 1.58561 5.57222 1.65232 5.60556L3.90941 6.67222L3.69816 7.03333C3.65924 7.1 3.68704 7.18889 3.75931 7.21667L6.00528 8.24444C6.1665 7.82778 6.38332 7.43889 6.65016 7.08889L2.46399 4.2ZM0.801746 7.4C0.812865 7.32222 0.890695 7.27778 0.962967 7.29444L5.88298 8.57778C5.75511 8.99444 5.68284 9.43333 5.67172 9.88889L3.20894 9.68889C3.13111 9.68333 3.07551 9.61111 3.09219 9.53333L3.16446 9.12222L0.679441 8.88889C0.60161 8.88333 0.551576 8.81111 0.562695 8.73333L0.796187 7.39444L0.801746 7.4ZM0.618288 10.7222C0.540458 10.7278 0.490424 10.8 0.501542 10.8778L0.740593 12.2167C0.751712 12.2944 0.829543 12.3389 0.901814 12.3222L3.31456 11.6944L3.38684 12.1056C3.39795 12.1833 3.47578 12.2278 3.54806 12.2111L5.92745 11.5556C5.78847 11.1444 5.69952 10.7056 5.67728 10.2556L0.612729 10.7222H0.618288ZM1.40771 14.2444C1.3688 14.1778 1.39659 14.0944 1.46331 14.0611L6.05531 11.8833C6.22765 12.2944 6.46115 12.6778 6.73911 13.0222L4.72663 14.4556C4.66548 14.5 4.57653 14.4833 4.53762 14.4167L4.32636 14.05L2.27497 15.4667C2.21382 15.5111 2.12487 15.4889 2.08595 15.4222L1.40215 14.2444H1.40771ZM6.9726 13.2889L3.39795 16.9056C3.34236 16.9611 3.34792 17.05 3.40907 17.1L4.45423 17.9722C4.51538 18.0222 4.59877 18.0111 4.64324 17.95L6.08867 15.9167L6.41111 16.1889C6.47226 16.2389 6.56121 16.2278 6.60569 16.1611L8.00664 14.1278C7.62861 13.8944 7.27837 13.6111 6.97816 13.2889H6.9726ZM6.26657 19.0944C6.1943 19.0667 6.16094 18.9833 6.1943 18.9167L8.3124 14.2944C8.70156 14.4944 9.12407 14.6444 9.56325 14.7278L8.94061 17.1167C8.92393 17.1889 8.84054 17.2333 8.76827 17.2056L8.37356 17.0611L7.712 19.4667C7.68976 19.5389 7.61193 19.5833 7.53966 19.5556L6.26101 19.0889L6.26657 19.0944ZM9.91349 14.7889L9.5021 19.8556C9.49654 19.9333 9.55769 20 9.62996 20H10.992C11.0698 20 11.131 19.9333 11.1199 19.8556L10.9197 17.3722H11.3367C11.4145 17.3722 11.4757 17.3056 11.4701 17.2278L11.2366 14.7722C10.9976 14.8111 10.7529 14.8278 10.5028 14.8278C10.3026 14.8278 10.1081 14.8167 9.91349 14.7889ZM14.8168 1.07222C14.8502 1 14.8168 0.922222 14.7445 0.894444L13.4659 0.427778C13.3936 0.4 13.3158 0.444444 13.2936 0.516667L12.632 2.92222L12.2373 2.77778C12.165 2.75 12.0872 2.79444 12.065 2.86667L11.4423 5.25556C11.8871 5.34444 12.304 5.49444 12.6932 5.68889L14.8168 1.07222ZM17.6076 3.08889L14.033 6.70556C13.7328 6.38333 13.3881 6.1 13.0045 5.86667L14.4054 3.83333C14.4499 3.77222 14.5389 3.75556 14.6 3.80556L14.9224 4.07778L16.3679 2.04444C16.4123 1.98333 16.5013 1.97222 16.5569 2.02222L17.602 2.89444C17.6632 2.94444 17.6632 3.03333 17.6132 3.08889H17.6076ZM19.5423 5.93333C19.6145 5.9 19.6368 5.81667 19.5978 5.75L18.914 4.57222C18.8751 4.50556 18.7862 4.48889 18.725 4.52778L16.6736 5.94444L16.4624 5.58333C16.4235 5.51667 16.3345 5.49444 16.2734 5.54444L14.2609 6.97778C14.5389 7.32222 14.7668 7.70556 14.9447 8.11667L19.5367 5.93889L19.5423 5.93333ZM20.265 7.77778L20.4985 9.11667C20.5096 9.19444 20.4595 9.26111 20.3817 9.27222L15.3172 9.74444C15.2949 9.28889 15.206 8.85556 15.067 8.44444L17.4464 7.78889C17.5187 7.76667 17.5965 7.81667 17.6076 7.89444L17.6799 8.30556L20.0926 7.67778C20.1649 7.66111 20.2427 7.70556 20.2538 7.78333L20.265 7.77778ZM20.037 12.6944C20.1093 12.7111 20.1871 12.6667 20.1983 12.5889L20.4317 11.25C20.4429 11.1722 20.3928 11.1056 20.315 11.0944L17.83 10.8611L17.9023 10.45C17.9134 10.3722 17.8633 10.3056 17.7855 10.2944L15.3227 10.0944C15.3116 10.55 15.2393 10.9889 15.1115 11.4056L20.0315 12.6889L20.037 12.6944ZM18.725 15.75C18.6861 15.8167 18.5972 15.8333 18.536 15.7944L14.3498 12.9056C14.6167 12.5556 14.8335 12.1667 14.9947 11.75L17.2407 12.7778C17.313 12.8111 17.3408 12.8944 17.3018 12.9611L17.0906 13.3222L19.3477 14.3889C19.4144 14.4222 19.4422 14.5056 19.4033 14.5722L18.725 15.75ZM13.1268 14.0444L16.0677 18.1889C16.1121 18.25 16.2011 18.2611 16.2567 18.2111L17.2963 17.3389C17.3574 17.2889 17.3574 17.2 17.3074 17.1444L15.5562 15.3722L15.8787 15.1056C15.9398 15.0556 15.9398 14.9667 15.8842 14.9111L14.1219 13.1778C13.8273 13.5111 13.4937 13.8056 13.1212 14.0444H13.1268ZM13.099 19.6889C13.0267 19.7167 12.9489 19.6722 12.9266 19.6L11.5813 14.7C12.0205 14.6 12.4374 14.4389 12.821 14.2278L13.8829 16.4556C13.9162 16.5278 13.8829 16.6111 13.8106 16.6333L13.4159 16.7778L14.4555 19.0444C14.4888 19.1167 14.4555 19.1944 14.3832 19.2222L13.1045 19.6889H13.099Z" fill="#FFBA00"/>
</svg>
